<?xml version="1.0" encoding="UTF-8" standalone="no"?>
<svg
   xmlns:dc="http://purl.org/dc/elements/1.1/"
   xmlns:cc="http://creativecommons.org/ns#"
   xmlns:rdf="http://www.w3.org/1999/02/22-rdf-syntax-ns#"
   xmlns:svg="http://www.w3.org/2000/svg"
   xmlns="http://www.w3.org/2000/svg"
   xmlns:xlink="http://www.w3.org/1999/xlink"
   xmlns:sodipodi="http://sodipodi.sourceforge.net/DTD/sodipodi-0.dtd"
   xmlns:inkscape="http://www.inkscape.org/namespaces/inkscape"
   id="svg2"
   fill-rule="evenodd"
   xml:space="preserve"
   viewBox="0 0 20657 19952.407"
   version="1.1"
   inkscape:version="0.48.4 r9939"
   width="100%"
   height="100%"
   sodipodi:docname="3d.svg"
   inkscape:export-filename="/home/jasper/proj/programs/thingscript/share/physible/resource/thingiview_overlay_icon/3d_tiny.png"
   inkscape:export-xdpi="0.11"
   inkscape:export-ydpi="0.11"><sodipodi:namedview
     pagecolor="#ffffff"
     bordercolor="#666666"
     borderopacity="1"
     objecttolerance="10"
     gridtolerance="10"
     guidetolerance="10"
     inkscape:pageopacity="0"
     inkscape:pageshadow="2"
     inkscape:window-width="1366"
     inkscape:window-height="760"
     id="namedview27"
     showgrid="false"
     inkscape:zoom="0.032482719"
     inkscape:cx="8994.0176"
     inkscape:cy="6147.3912"
     inkscape:window-x="0"
     inkscape:window-y="0"
     inkscape:window-maximized="1"
     inkscape:current-layer="svg2" /><defs
     id="defs4"><linearGradient
       id="linearGradient3781"><stop
         id="stop3783"
         stop-color="#0f0"
         offset="0" /><stop
         id="stop3785"
         stop-color="#008000"
         offset="1" /></linearGradient><style
       id="style6"
       type="text/css">
    .fil0 {fill:#007C00}
    .fil2 {fill:#013300}
    .fil3 {fill:#033303}
    .fil1 {fill:#007C00;fill-rule:nonzero}
    .fil4 {fill:url(#id0);fill-rule:nonzero}
  </style><linearGradient
       id="id0"
       y2="5674.1"
       gradientUnits="userSpaceOnUse"
       x2="20874"
       y1="15314"
       x1="20874"><stop
         id="stop9"
         stop-color="#030"
         offset="0" /><stop
         id="stop3779"
         stop-color="#00b200"
         offset=".5" /><stop
         id="stop11"
         stop-color="#030"
         offset="1" /></linearGradient><radialGradient
       id="radialGradient3809"
       xlink:href="#linearGradient3781"
       gradientUnits="userSpaceOnUse"
       cy="5466.7"
       cx="14842"
       gradientTransform="matrix(-2.0062 0 0 -3.9335 44619 22089)"
       r="5041.5" /><radialGradient
       id="radialGradient3811"
       xlink:href="#linearGradient3781"
       gradientUnits="userSpaceOnUse"
       cy="5215.9"
       cx="14842"
       gradientTransform="matrix(3.3165e-7 3.735 -1.9776 1.756e-7 25157 -54861)"
       r="5287.5" /><linearGradient
       id="linearGradient3813"
       y2="4853.8"
       xlink:href="#id0"
       gradientUnits="userSpaceOnUse"
       x2="20874"
       y1="16070"
       x1="20874" /><linearGradient
       id="linearGradient3815"
       y2="19.913"
       gradientUnits="userSpaceOnUse"
       x2="526.18"
       y1="723.89"
       x1="526.15"><stop
         id="stop3795"
         stop-color="#fff"
         stop-opacity=".5"
         offset="0" /><stop
         id="stop3797"
         stop-color="#fff"
         stop-opacity=".8"
         offset="1" /></linearGradient><linearGradient
       inkscape:collect="always"
       xlink:href="#id0"
       id="linearGradient3024"
       gradientUnits="userSpaceOnUse"
       x1="20874"
       y1="15314"
       x2="20874"
       y2="5674.1" /></defs><g
     id="g3801"
     transform="matrix(0.81571353,0,0,0.81571353,-1484.3433,-565.32661)"><polygon
       id="polygon15"
       class="fil0"
       points="10804,8769 10804,5170 4772,6143 4769,3212 14850,562 14850,20430 4798,17811 4798,14905 10831,15859 10831,12287 4767,11990 4767,9064 "
       style="fill:#007c00" /><path
       id="path17"
       d="m 14850,562 c 1171,302 2275,586 3316,855 980,253 1910,492 2792,720 981,253 1736,644 2285,1165 531,503 957,1131 1285,1883 322,739 546,1556 686,2463 139,899 210,1836 210,2820 0,1545 -104,2753 -311,3633 -209,892 -502,1671 -890,2341 -399,687 -836,1195 -1321,1517 -686,457 -1338,765 -1943,919 -883,224 -1815,461 -2797,711 -1042,265 -2146,545 -3313,842 V 563 z m 4328,5112 v 9640 c 312,-43 620,-86 921,-127 748,-103 1261,-291 1558,-565 292,-270 514,-699 675,-1287 160,-585 238,-1509 238,-2786 -1,-1684 -177,-2852 -536,-3518 -368,-683 -997,-1093 -1918,-1224 -307,-43 -619,-88 -937,-133 z"
       class="fil1"
       inkscape:connector-curvature="0"
       style="fill:#007c00;fill-rule:nonzero" /><polygon
       id="polygon19"
       class="fil2"
       points="4772,6143 10804,6700 10804,5170 "
       style="fill:#013300" /><polygon
       id="polygon21"
       class="fil3"
       points="4798,14905 10831,14356 10831,15859 "
       style="fill:#033303" /><path
       id="path23"
       d="m 19178,5674 v 9640 c 312,-43 620,-86 921,-127 748,-103 1261,-291 1558,-565 292,-270 514,-699 675,-1287 160,-585 238,-1509 238,-2786 -1,-1684 -177,-2852 -536,-3518 -368,-683 -997,-1093 -1918,-1224 -307,-43 -619,-88 -937,-133 z"
       class="fil4"
       style="fill:url(#linearGradient3024);fill-rule:nonzero"
       inkscape:connector-curvature="0" /><path
       id="path3791"
       d="m 526.18,19.913 -0.0354,703.98"
       transform="matrix(28.222,0,0,28.222,0,-1.392e-4)"
       style="fill:none;stroke:url(#linearGradient3815);stroke-width:3"
       inkscape:connector-curvature="0" /></g><metadata
     id="metadata25"><rdf:RDF><cc:Work><dc:format>image/svg+xml</dc:format><dc:type
           rdf:resource="http://purl.org/dc/dcmitype/StillImage" /><cc:license
           rdf:resource="http://creativecommons.org/licenses/publicdomain/" /><dc:publisher><cc:Agent
             rdf:about="http://openclipart.org/"><dc:title>Openclipart</dc:title></cc:Agent></dc:publisher><dc:title /></cc:Work><cc:License
         rdf:about="http://creativecommons.org/licenses/publicdomain/"><cc:permits
           rdf:resource="http://creativecommons.org/ns#Reproduction" /><cc:permits
           rdf:resource="http://creativecommons.org/ns#Distribution" /><cc:permits
           rdf:resource="http://creativecommons.org/ns#DerivativeWorks" /></cc:License></rdf:RDF></metadata><flowRoot
     xml:space="preserve"
     id="flowRoot3004"
     style="font-size:40px;font-style:normal;font-weight:normal;line-height:125%;letter-spacing:0px;word-spacing:0px;fill:#000000;fill-opacity:1;stroke:none;font-family:Sans"
     transform="matrix(89.864105,0,0,89.864105,-188091.03,-1807531.1)"><flowRegion
       id="flowRegion3006"><rect
         id="rect3008"
         width="20318.189"
         height="3754.448"
         x="2134.8823"
         y="20283.682" /></flowRegion><flowPara
       id="flowPara3010"
       style="font-weight:bold">onclick</flowPara></flowRoot><flowRoot
     xml:space="preserve"
     id="flowRoot3012"
     style="fill:black;stroke:none;stroke-opacity:1;stroke-width:1px;stroke-linejoin:miter;stroke-linecap:butt;fill-opacity:1;font-family:Sans;font-style:normal;font-weight:normal;font-size:40px;line-height:125%;letter-spacing:0px;word-spacing:0px"><flowRegion
       id="flowRegion3014"><rect
         id="rect3016"
         width="73.202087"
         height="60.188381"
         x="2630.395"
         y="20241.963" /></flowRegion><flowPara
       id="flowPara3018" /></flowRoot></svg>